<?xml version="1.0" encoding="UTF-8"?>
<svg xmlns="http://www.w3.org/2000/svg" xmlns:xlink="http://www.w3.org/1999/xlink" width="160px" height="80px" viewBox="0 0 160 80" version="1.1">
<g id="surface1">
<path style=" stroke:none;fill-rule:nonzero;fill:rgb(1.176471%,9.411765%,27.450982%);fill-opacity:1;" d="M 54.398438 9.734375 C 54.636719 9.890625 54.878906 10.050781 55.117188 10.207031 C 55.277344 10.316406 55.4375 10.425781 55.601562 10.535156 C 55.714844 10.453125 55.832031 10.371094 55.953125 10.289062 C 59.160156 8.089844 62.585938 6.542969 66.398438 5.734375 C 66.507812 5.710938 66.613281 5.6875 66.722656 5.660156 C 73.347656 4.269531 80.765625 5.832031 86.394531 9.503906 C 86.945312 9.875 87.472656 10.265625 88 10.667969 C 88.171875 10.796875 88.171875 10.796875 88.351562 10.929688 C 93.996094 15.316406 97.554688 21.734375 98.535156 28.800781 C 99.398438 35.945312 97.449219 43.109375 93.054688 48.792969 C 92.351562 49.683594 91.589844 50.515625 90.800781 51.332031 C 90.660156 51.476562 90.660156 51.476562 90.519531 51.625 C 90.058594 52.09375 89.574219 52.511719 89.066406 52.933594 C 102.835938 52.957031 102.835938 52.957031 116.605469 52.898438 C 117.230469 52.894531 117.855469 52.890625 118.480469 52.886719 C 119.210938 52.882812 119.941406 52.878906 120.667969 52.871094 C 120.929688 52.871094 121.191406 52.867188 121.453125 52.867188 C 123.65625 52.859375 125.847656 52.675781 127.964844 52.035156 C 128.140625 51.980469 128.140625 51.980469 128.316406 51.929688 C 130.707031 51.199219 133.050781 50.058594 134.933594 48.398438 C 135.097656 48.261719 135.097656 48.261719 135.261719 48.121094 C 136.765625 46.832031 137.863281 45.328125 138.800781 43.601562 C 138.84375 43.519531 138.886719 43.441406 138.929688 43.359375 C 139.464844 42.351562 139.847656 41.320312 140.167969 40.226562 C 140.214844 40.066406 140.214844 40.066406 140.261719 39.90625 C 140.8125 37.910156 141.003906 35.9375 140.984375 33.875 C 140.984375 33.765625 140.980469 33.652344 140.980469 33.539062 C 140.972656 31.933594 140.933594 30.363281 140.535156 28.800781 C 140.507812 28.691406 140.480469 28.585938 140.449219 28.476562 C 139.683594 25.539062 138.453125 22.796875 136.398438 20.535156 C 136.339844 20.464844 136.277344 20.398438 136.210938 20.324219 C 135.113281 19.128906 133.917969 18.179688 132.535156 17.332031 C 132.445312 17.28125 132.359375 17.226562 132.269531 17.171875 C 128.792969 15.082031 124.789062 14.460938 120.796875 14.324219 C 120.628906 14.320312 120.460938 14.316406 120.289062 14.308594 C 118.316406 14.25 116.34375 14.25 114.371094 14.253906 C 113.839844 14.253906 113.308594 14.253906 112.777344 14.253906 C 111.777344 14.253906 110.777344 14.253906 109.777344 14.257812 C 108.636719 14.257812 107.496094 14.257812 106.355469 14.261719 C 104.015625 14.261719 101.671875 14.265625 99.332031 14.265625 C 99.332031 12.285156 99.332031 10.308594 99.332031 8.265625 C 102.613281 8.253906 105.894531 8.246094 109.175781 8.238281 C 110.699219 8.234375 112.222656 8.234375 113.746094 8.226562 C 115.074219 8.222656 116.402344 8.21875 117.734375 8.214844 C 118.433594 8.214844 119.136719 8.214844 119.839844 8.210938 C 125.546875 8.179688 125.546875 8.179688 128.265625 8.800781 C 128.382812 8.824219 128.496094 8.851562 128.617188 8.878906 C 133.207031 9.925781 137.203125 12.027344 140.667969 15.199219 C 140.820312 15.339844 140.820312 15.339844 140.976562 15.480469 C 145.164062 19.464844 147.730469 25.800781 147.890625 31.539062 C 147.894531 31.75 147.894531 31.964844 147.898438 32.179688 C 147.898438 32.292969 147.902344 32.410156 147.902344 32.527344 C 147.925781 35.152344 147.886719 37.6875 147.332031 40.265625 C 147.308594 40.382812 147.285156 40.5 147.261719 40.617188 C 146.386719 44.636719 144.40625 48.464844 141.523438 51.40625 C 141.324219 51.609375 141.132812 51.816406 140.941406 52.023438 C 137.234375 55.953125 131.839844 58.277344 126.535156 58.933594 C 126.445312 58.945312 126.359375 58.957031 126.269531 58.96875 C 125.15625 59.097656 124.046875 59.085938 122.929688 59.085938 C 122.699219 59.085938 122.46875 59.085938 122.238281 59.085938 C 121.609375 59.089844 120.980469 59.089844 120.347656 59.089844 C 119.667969 59.089844 118.984375 59.089844 118.304688 59.09375 C 116.660156 59.09375 115.019531 59.097656 113.375 59.097656 C 112.597656 59.097656 111.824219 59.097656 111.046875 59.101562 C 108.46875 59.101562 105.886719 59.105469 103.304688 59.105469 C 102.636719 59.105469 101.96875 59.105469 101.300781 59.105469 C 101.050781 59.105469 101.050781 59.105469 100.796875 59.105469 C 98.105469 59.105469 95.417969 59.109375 92.726562 59.113281 C 89.960938 59.121094 87.195312 59.121094 84.429688 59.121094 C 82.875 59.121094 81.324219 59.125 79.773438 59.128906 C 78.453125 59.128906 77.128906 59.132812 75.808594 59.128906 C 75.136719 59.128906 74.460938 59.128906 73.789062 59.132812 C 67.386719 59.15625 61.152344 58.101562 55.960938 54.054688 C 55.617188 53.828125 55.617188 53.828125 55.277344 53.929688 C 54.847656 54.183594 54.441406 54.457031 54.035156 54.742188 C 51.152344 56.695312 47.929688 57.933594 44.535156 58.667969 C 44.425781 58.691406 44.320312 58.714844 44.210938 58.738281 C 40.9375 59.433594 36.992188 59.394531 33.734375 58.667969 C 33.613281 58.640625 33.492188 58.613281 33.367188 58.585938 C 29.464844 57.710938 25.84375 56.027344 22.667969 53.601562 C 22.542969 53.511719 22.421875 53.417969 22.296875 53.328125 C 18.664062 50.523438 15.917969 46.734375 14.132812 42.535156 C 14.097656 42.449219 14.0625 42.367188 14.023438 42.28125 C 11.347656 35.957031 11.476562 28.472656 13.949219 22.117188 C 15.160156 19.152344 16.808594 16.515625 18.933594 14.132812 C 18.996094 14.0625 19.054688 13.996094 19.117188 13.921875 C 23.855469 8.558594 30.585938 5.5625 37.675781 5.085938 C 43.5625 4.746094 49.546875 6.367188 54.398438 9.734375 Z M 34.667969 12 C 34.5625 12.023438 34.457031 12.046875 34.351562 12.074219 C 31.175781 12.851562 28.332031 14.402344 25.867188 16.535156 C 25.769531 16.617188 25.769531 16.617188 25.667969 16.707031 C 24.695312 17.550781 23.84375 18.433594 23.066406 19.464844 C 22.984375 19.574219 22.90625 19.679688 22.824219 19.789062 C 19.667969 24.140625 18.3125 29.511719 19.082031 34.839844 C 19.941406 40.105469 22.839844 44.957031 27.140625 48.132812 C 31.605469 51.304688 37.074219 52.675781 42.5 51.796875 C 45.152344 51.3125 47.902344 50.34375 50.132812 48.800781 C 50.3125 48.425781 50.3125 48.425781 50.160156 48.179688 C 50.101562 48.097656 50.042969 48.015625 49.980469 47.933594 C 49.882812 47.796875 49.882812 47.796875 49.785156 47.652344 C 49.710938 47.554688 49.640625 47.453125 49.566406 47.351562 C 47.039062 43.683594 45.613281 39.605469 45.066406 35.199219 C 45.050781 35.0625 45.03125 34.925781 45.011719 34.785156 C 44.316406 28.097656 46.328125 21.089844 50.433594 15.773438 C 50.554688 15.625 50.675781 15.480469 50.800781 15.332031 C 48.460938 13.308594 45.152344 12.195312 42.132812 11.734375 C 41.976562 11.707031 41.820312 11.683594 41.660156 11.660156 C 39.371094 11.386719 36.914062 11.46875 34.667969 12 Z M 60.398438 15.199219 C 60.59375 15.769531 60.898438 16.203125 61.257812 16.675781 C 63.835938 20.191406 65.230469 24.386719 65.867188 28.667969 C 65.886719 28.804688 65.886719 28.804688 65.910156 28.945312 C 66.039062 29.941406 66.03125 30.945312 66.035156 31.949219 C 66.035156 32.046875 66.035156 32.144531 66.035156 32.246094 C 66.023438 38.105469 64.171875 43.367188 60.832031 48.15625 C 60.660156 48.398438 60.660156 48.398438 60.535156 48.667969 C 62.875 50.148438 65.292969 51.140625 68 51.734375 C 68.144531 51.765625 68.292969 51.800781 68.441406 51.832031 C 73.476562 52.746094 78.886719 51.433594 83.082031 48.574219 C 87.777344 45.304688 90.722656 40.554688 91.734375 34.933594 C 92.125 32.542969 92.050781 29.816406 91.464844 27.464844 C 91.445312 27.375 91.421875 27.28125 91.398438 27.183594 C 90.019531 21.761719 86.664062 17.277344 81.867188 14.398438 C 75.472656 10.707031 66.40625 10.511719 60.398438 15.199219 Z M 55.464844 20 C 52.316406 24.058594 51.074219 29.441406 51.703125 34.5 C 52.160156 37.632812 53.234375 41.15625 55.332031 43.601562 C 55.421875 43.601562 55.507812 43.601562 55.601562 43.601562 C 58.765625 39.539062 59.78125 34.171875 59.269531 29.148438 C 58.894531 26.179688 57.761719 22.089844 55.464844 20 Z M 55.464844 20 "/>
<path style=" stroke:none;fill-rule:nonzero;fill:rgb(1.176471%,9.411765%,27.450982%);fill-opacity:1;" d="M 99.332031 18.535156 C 102.300781 18.527344 105.269531 18.523438 108.238281 18.519531 C 109.617188 18.519531 110.996094 18.515625 112.375 18.511719 C 113.578125 18.511719 114.777344 18.507812 115.980469 18.507812 C 116.617188 18.507812 117.253906 18.507812 117.886719 18.503906 C 118.488281 18.503906 119.089844 18.503906 119.6875 18.503906 C 119.90625 18.503906 120.125 18.503906 120.34375 18.5 C 122.234375 18.492188 124.128906 18.585938 125.957031 19.101562 C 126.117188 19.144531 126.117188 19.144531 126.277344 19.1875 C 129.933594 20.230469 132.949219 22.597656 134.851562 25.882812 C 136.980469 29.785156 137.464844 34.234375 136.304688 38.515625 C 135.722656 40.496094 134.75 42.257812 133.464844 43.867188 C 133.371094 43.984375 133.277344 44.105469 133.179688 44.226562 C 130.519531 47.367188 126.433594 48.996094 122.398438 49.332031 C 121.976562 49.351562 121.550781 49.351562 121.128906 49.351562 C 120.945312 49.351562 120.945312 49.351562 120.753906 49.351562 C 120.347656 49.351562 119.9375 49.351562 119.53125 49.351562 C 119.386719 49.351562 119.242188 49.351562 119.09375 49.347656 C 115.378906 49.34375 111.664062 49.28125 107.949219 49.214844 C 107.003906 49.199219 106.0625 49.183594 105.117188 49.167969 C 103.191406 49.132812 101.261719 49.101562 99.332031 49.066406 C 99.332031 47.308594 99.332031 45.546875 99.332031 43.734375 C 100.3125 43.730469 100.3125 43.730469 101.308594 43.726562 C 103.472656 43.714844 105.636719 43.707031 107.800781 43.695312 C 109.109375 43.6875 110.421875 43.683594 111.734375 43.675781 C 112.875 43.671875 114.019531 43.667969 115.164062 43.660156 C 115.769531 43.65625 116.371094 43.65625 116.976562 43.652344 C 123.25 43.800781 123.25 43.800781 128.535156 40.800781 C 128.617188 40.71875 128.703125 40.636719 128.792969 40.550781 C 130.488281 38.785156 131.121094 36.066406 131.09375 33.6875 C 130.933594 30.960938 129.914062 28.617188 128 26.667969 C 127.929688 26.589844 127.855469 26.515625 127.78125 26.4375 C 124.992188 23.78125 120.433594 24.246094 116.898438 24.253906 C 116.582031 24.253906 116.265625 24.253906 115.949219 24.253906 C 115.125 24.253906 114.300781 24.257812 113.480469 24.257812 C 112.636719 24.257812 111.792969 24.257812 110.949219 24.261719 C 109.296875 24.261719 107.648438 24.265625 106 24.265625 C 106 24.347656 106 24.429688 106 24.511719 C 105.984375 26.480469 105.96875 28.445312 105.953125 30.414062 C 105.949219 31.363281 105.941406 32.316406 105.933594 33.269531 C 105.925781 34.183594 105.921875 35.101562 105.914062 36.019531 C 105.910156 36.371094 105.90625 36.722656 105.90625 37.070312 C 105.902344 37.5625 105.898438 38.050781 105.894531 38.539062 C 105.894531 38.6875 105.890625 38.832031 105.890625 38.984375 C 105.890625 39.183594 105.890625 39.183594 105.886719 39.386719 C 105.886719 39.503906 105.886719 39.617188 105.886719 39.738281 C 105.867188 40 105.867188 40 105.734375 40.132812 C 105.539062 40.144531 105.339844 40.152344 105.144531 40.152344 C 105.019531 40.152344 104.894531 40.152344 104.765625 40.152344 C 104.628906 40.152344 104.496094 40.152344 104.355469 40.152344 C 104.144531 40.152344 104.144531 40.152344 103.933594 40.152344 C 103.640625 40.152344 103.347656 40.152344 103.054688 40.152344 C 102.601562 40.148438 102.152344 40.152344 101.699219 40.152344 C 101.414062 40.152344 101.128906 40.152344 100.847656 40.152344 C 100.710938 40.152344 100.574219 40.152344 100.433594 40.152344 C 100.246094 40.152344 100.246094 40.152344 100.054688 40.152344 C 99.945312 40.152344 99.832031 40.148438 99.71875 40.148438 C 99.464844 40.132812 99.464844 40.132812 99.332031 40 C 99.320312 39.722656 99.316406 39.445312 99.316406 39.167969 C 99.316406 39.082031 99.316406 38.992188 99.316406 38.902344 C 99.316406 38.605469 99.316406 38.308594 99.316406 38.015625 C 99.316406 37.804688 99.316406 37.589844 99.316406 37.378906 C 99.316406 36.804688 99.320312 36.226562 99.320312 35.652344 C 99.320312 35.050781 99.320312 34.449219 99.320312 33.847656 C 99.320312 32.707031 99.324219 31.570312 99.324219 30.429688 C 99.324219 29.132812 99.324219 27.835938 99.328125 26.539062 C 99.328125 23.871094 99.332031 21.203125 99.332031 18.535156 Z M 99.332031 18.535156 "/>
<path style=" stroke:none;fill-rule:nonzero;fill:rgb(1.176471%,9.411765%,27.450982%);fill-opacity:1;" d="M 64.132812 67.066406 C 64.574219 67.066406 65.011719 67.066406 65.464844 67.066406 C 65.464844 68.957031 65.464844 70.851562 65.464844 72.800781 C 66.566406 72.800781 67.667969 72.800781 68.800781 72.800781 C 68.84375 72.933594 68.886719 73.0625 68.933594 73.199219 C 69.882812 71.164062 70.832031 69.125 71.734375 67.066406 C 72.171875 67.066406 72.613281 67.066406 73.066406 67.066406 C 73.394531 67.78125 73.726562 68.492188 74.054688 69.207031 C 74.167969 69.449219 74.277344 69.691406 74.390625 69.933594 C 74.703125 70.613281 75.019531 71.292969 75.332031 71.976562 C 75.453125 72.234375 75.570312 72.492188 75.691406 72.753906 C 75.753906 72.882812 75.816406 73.015625 75.878906 73.152344 C 75.953125 73.316406 75.953125 73.316406 76.03125 73.480469 C 76.132812 73.734375 76.132812 73.734375 76.132812 74 C 75.648438 74 75.164062 74 74.667969 74 C 74.132812 72.851562 74.132812 72.851562 74.132812 72.398438 C 72.484375 72.464844 72.484375 72.464844 70.800781 72.535156 C 70.578125 73.015625 70.359375 73.5 70.132812 74 C 68.152344 74 66.171875 74 64.132812 74 C 64.132812 71.710938 64.132812 69.425781 64.132812 67.066406 Z M 72.265625 68.667969 C 71.914062 69.546875 71.5625 70.425781 71.199219 71.332031 C 71.992188 71.332031 72.785156 71.332031 73.601562 71.332031 C 73.089844 69.992188 73.089844 69.992188 72.535156 68.667969 C 72.445312 68.667969 72.355469 68.667969 72.265625 68.667969 Z M 72.265625 68.667969 "/>
<path style=" stroke:none;fill-rule:nonzero;fill:rgb(1.176471%,9.411765%,27.450982%);fill-opacity:1;" d="M 98.132812 67.066406 C 98.722656 67.054688 99.316406 67.042969 99.925781 67.035156 C 100.199219 67.027344 100.199219 67.027344 100.484375 67.019531 C 101.664062 67.007812 102.507812 67.15625 103.441406 67.898438 C 104.234375 68.898438 104.484375 69.886719 104.367188 71.160156 C 104.183594 72.257812 103.714844 72.886719 102.851562 73.558594 C 101.425781 74.335938 99.652344 74 98.132812 74 C 98.132812 71.710938 98.132812 69.425781 98.132812 67.066406 Z M 99.464844 68.132812 C 99.464844 69.671875 99.464844 71.214844 99.464844 72.800781 C 101.316406 72.949219 101.316406 72.949219 102.265625 72.398438 C 102.960938 71.652344 102.980469 71.019531 102.972656 70.03125 C 102.917969 69.421875 102.78125 69.144531 102.398438 68.667969 C 101.46875 67.96875 100.675781 68.132812 99.464844 68.132812 Z M 99.464844 68.132812 "/>
<path style=" stroke:none;fill-rule:nonzero;fill:rgb(1.176471%,9.411765%,27.450982%);fill-opacity:1;" d="M 110.535156 67.332031 C 111.296875 67.847656 111.667969 68.453125 111.945312 69.3125 C 112.171875 70.492188 112.121094 71.765625 111.464844 72.800781 C 110.824219 73.578125 110.0625 73.996094 109.066406 74.132812 C 108.023438 74.175781 107.203125 74.023438 106.398438 73.332031 C 105.535156 72.464844 105.3125 71.667969 105.273438 70.476562 C 105.300781 69.378906 105.570312 68.730469 106.148438 67.824219 C 107.3125 66.738281 109.140625 66.558594 110.535156 67.332031 Z M 107.199219 68.667969 C 106.824219 69.28125 106.746094 69.75 106.75 70.464844 C 106.75 70.636719 106.746094 70.804688 106.746094 70.980469 C 106.820312 71.644531 107.03125 72.085938 107.484375 72.574219 C 108.003906 72.882812 108.464844 72.960938 109.066406 72.933594 C 109.699219 72.71875 110.027344 72.417969 110.398438 71.867188 C 110.675781 71.042969 110.703125 69.929688 110.402344 69.105469 C 110.113281 68.625 109.867188 68.339844 109.332031 68.132812 C 108.488281 68.011719 107.84375 68.066406 107.199219 68.667969 Z M 107.199219 68.667969 "/>
<path style=" stroke:none;fill-rule:nonzero;fill:rgb(1.176471%,9.411765%,27.450982%);fill-opacity:1;" d="M 60.265625 65.734375 C 60.617188 65.734375 60.96875 65.734375 61.332031 65.734375 C 61.394531 66.945312 61.394531 66.945312 60.933594 67.464844 C 60.667969 67.5625 60.402344 67.652344 60.132812 67.734375 C 60.136719 67.859375 60.140625 67.988281 60.140625 68.121094 C 60.152344 68.597656 60.15625 69.078125 60.164062 69.554688 C 60.164062 69.761719 60.167969 69.96875 60.171875 70.171875 C 60.203125 71.527344 60.21875 72.535156 59.242188 73.582031 C 58.226562 74.234375 57.164062 74.199219 56 74 C 55.308594 73.761719 54.953125 73.394531 54.535156 72.800781 C 54.25 72.132812 54.230469 71.550781 54.242188 70.84375 C 54.242188 70.679688 54.242188 70.679688 54.242188 70.515625 C 54.242188 70.171875 54.246094 69.828125 54.25 69.484375 C 54.25 69.25 54.253906 69.015625 54.253906 68.78125 C 54.257812 68.210938 54.261719 67.636719 54.265625 67.066406 C 54.707031 67.066406 55.148438 67.066406 55.601562 67.066406 C 55.601562 67.199219 55.605469 67.332031 55.605469 67.46875 C 55.613281 67.960938 55.625 68.457031 55.636719 68.953125 C 55.640625 69.164062 55.644531 69.378906 55.644531 69.59375 C 55.652344 69.902344 55.65625 70.210938 55.664062 70.515625 C 55.664062 70.613281 55.667969 70.707031 55.667969 70.804688 C 55.6875 71.480469 55.828125 71.941406 56.132812 72.535156 C 56.628906 72.882812 57.144531 72.820312 57.722656 72.738281 C 58.117188 72.636719 58.300781 72.464844 58.535156 72.132812 C 58.695312 71.644531 58.699219 71.183594 58.707031 70.671875 C 58.710938 70.570312 58.714844 70.46875 58.71875 70.359375 C 58.726562 70.03125 58.734375 69.703125 58.742188 69.375 C 58.746094 69.152344 58.753906 68.929688 58.757812 68.707031 C 58.773438 68.160156 58.785156 67.613281 58.800781 67.066406 C 58.925781 67.03125 58.925781 67.03125 59.054688 66.996094 C 59.164062 66.964844 59.273438 66.929688 59.386719 66.898438 C 59.496094 66.867188 59.605469 66.835938 59.71875 66.800781 C 60.015625 66.691406 60.015625 66.691406 60.140625 66.433594 C 60.222656 66.148438 60.222656 66.148438 60.265625 65.734375 Z M 60.265625 65.734375 "/>
<path style=" stroke:none;fill-rule:nonzero;fill:rgb(1.176471%,9.411765%,27.450982%);fill-opacity:1;" d="M 94.132812 65.734375 C 94.53125 65.734375 94.925781 65.734375 95.332031 65.734375 C 95.253906 67.0625 95.253906 67.0625 94.667969 67.601562 C 94.382812 67.683594 94.382812 67.683594 94.132812 67.734375 C 94.136719 67.902344 94.136719 67.902344 94.136719 68.070312 C 94.140625 68.488281 94.144531 68.910156 94.148438 69.328125 C 94.148438 69.59375 94.152344 69.863281 94.15625 70.132812 C 94.167969 72.472656 94.167969 72.472656 93.332031 73.464844 C 92.53125 74.097656 91.671875 74.164062 90.667969 74.132812 C 89.816406 74.003906 89.203125 73.765625 88.667969 73.066406 C 88.238281 72.378906 88.210938 71.835938 88.226562 71.050781 C 88.226562 70.9375 88.230469 70.824219 88.230469 70.703125 C 88.230469 70.34375 88.238281 69.980469 88.242188 69.617188 C 88.242188 69.371094 88.246094 69.121094 88.246094 68.875 C 88.25 68.273438 88.257812 67.667969 88.265625 67.066406 C 88.707031 67.066406 89.148438 67.066406 89.601562 67.066406 C 89.601562 67.207031 89.605469 67.351562 89.605469 67.496094 C 89.613281 68.023438 89.625 68.554688 89.636719 69.082031 C 89.640625 69.308594 89.644531 69.539062 89.644531 69.765625 C 89.652344 70.09375 89.65625 70.421875 89.664062 70.75 C 89.664062 70.851562 89.667969 70.953125 89.667969 71.058594 C 89.683594 71.660156 89.761719 72.054688 90.132812 72.535156 C 90.644531 72.863281 91.140625 72.828125 91.722656 72.746094 C 92.15625 72.621094 92.316406 72.386719 92.535156 72 C 92.703125 71.496094 92.695312 70.976562 92.707031 70.453125 C 92.710938 70.355469 92.714844 70.257812 92.71875 70.160156 C 92.726562 69.851562 92.734375 69.542969 92.742188 69.234375 C 92.746094 69.023438 92.753906 68.8125 92.757812 68.605469 C 92.773438 68.09375 92.785156 67.578125 92.800781 67.066406 C 93.152344 66.980469 93.503906 66.890625 93.867188 66.800781 C 93.953125 66.449219 94.042969 66.097656 94.132812 65.734375 Z M 94.132812 65.734375 "/>
<path style=" stroke:none;fill-rule:nonzero;fill:rgb(1.176471%,9.411765%,27.450982%);fill-opacity:1;" d="M 47.601562 67.066406 C 49.578125 67.066406 51.558594 67.066406 53.601562 67.066406 C 53.601562 67.417969 53.601562 67.769531 53.601562 68.132812 C 52.851562 68.132812 52.105469 68.132812 51.332031 68.132812 C 51.332031 70.070312 51.332031 72.003906 51.332031 74 C 50.847656 74 50.367188 74 49.867188 74 C 49.867188 72.0625 49.867188 70.128906 49.867188 68.132812 C 49.117188 68.132812 48.371094 68.132812 47.601562 68.132812 C 47.601562 67.78125 47.601562 67.429688 47.601562 67.066406 Z M 47.601562 67.066406 "/>
<path style=" stroke:none;fill-rule:nonzero;fill:rgb(1.176471%,9.411765%,27.450982%);fill-opacity:1;" d="M 81.601562 67.066406 C 83.535156 67.066406 85.472656 67.066406 87.464844 67.066406 C 87.464844 67.417969 87.464844 67.769531 87.464844 68.132812 C 86.71875 68.132812 85.96875 68.132812 85.199219 68.132812 C 85.199219 70.070312 85.199219 72.003906 85.199219 74 C 84.761719 74 84.320312 74 83.867188 74 C 83.867188 72.0625 83.867188 70.128906 83.867188 68.132812 C 83.117188 68.132812 82.371094 68.132812 81.601562 68.132812 C 81.601562 67.78125 81.601562 67.429688 81.601562 67.066406 Z M 81.601562 67.066406 "/>
<path style=" stroke:none;fill-rule:nonzero;fill:rgb(1.176471%,9.411765%,27.450982%);fill-opacity:1;" d="M 76.800781 67.066406 C 77.238281 67.066406 77.679688 67.066406 78.132812 67.066406 C 78.132812 69.355469 78.132812 71.644531 78.132812 74 C 77.691406 74 77.253906 74 76.800781 74 C 76.800781 71.710938 76.800781 69.425781 76.800781 67.066406 Z M 76.800781 67.066406 "/>
<path style=" stroke:none;fill-rule:nonzero;fill:rgb(1.176471%,9.411765%,27.450982%);fill-opacity:1;" d="M 72.933594 64.800781 C 73.417969 64.800781 73.902344 64.800781 74.398438 64.800781 C 73.390625 66.183594 73.390625 66.183594 72.933594 66.535156 C 72.558594 66.585938 72.246094 66.566406 71.867188 66.535156 C 71.933594 66.429688 72 66.328125 72.066406 66.222656 C 72.152344 66.089844 72.238281 65.953125 72.324219 65.816406 C 72.410156 65.683594 72.496094 65.550781 72.582031 65.414062 C 72.796875 65.085938 72.796875 65.085938 72.933594 64.800781 Z M 72.933594 64.800781 "/>
<path style=" stroke:none;fill-rule:nonzero;fill:rgb(1.176471%,9.411765%,27.450982%);fill-opacity:1;" d="M 90.535156 74.800781 C 90.972656 74.800781 91.414062 74.800781 91.867188 74.800781 C 91.867188 75.195312 91.867188 75.59375 91.867188 76 C 91.425781 76 90.988281 76 90.535156 76 C 90.535156 75.605469 90.535156 75.207031 90.535156 74.800781 Z M 90.535156 74.800781 "/>
<path style=" stroke:none;fill-rule:nonzero;fill:rgb(1.176471%,9.411765%,27.450982%);fill-opacity:1;" d="M 56.667969 74.800781 C 57.105469 74.800781 57.546875 74.800781 58 74.800781 C 58 75.195312 58 75.59375 58 76 C 57.558594 76 57.121094 76 56.667969 76 C 56.667969 75.605469 56.667969 75.207031 56.667969 74.800781 Z M 56.667969 74.800781 "/>
</g>
</svg>
