<svg width="31" height="31" viewBox="0 0 31 31" fill="none" xmlns="http://www.w3.org/2000/svg">
<g id="mercedes 1" clip-path="url(#clip0_6_3073)">
<path id="Vector" d="M30.1719 15.5C30.1719 23.6094 23.6094 30.1719 15.5 30.1719C7.39062 30.1719 0.828125 23.6094 0.828125 15.5C0.828125 7.39062 7.39062 0.828125 15.5 0.828125C23.6094 0.828125 30.1719 7.39062 30.1719 15.5ZM15.5 1.71875C7.85937 1.71875 1.71875 7.85937 1.71875 15.5C1.71875 23.1406 7.90625 29.2812 15.5 29.2812C23.1406 29.2812 29.2812 23.0937 29.2812 15.5C29.2812 7.85937 23.1406 1.71875 15.5 1.71875Z" fill="url(#paint0_linear_6_3073)"/>
<path id="Vector_2" d="M15.5 1.71875C7.85938 1.71875 1.71875 7.85938 1.71875 15.5C1.71875 23.1406 7.90625 29.2812 15.5 29.2812C23.1406 29.2812 29.2812 23.0937 29.2812 15.5C29.2812 7.85938 23.1406 1.71875 15.5 1.71875ZM15.5 28.3906C8.375 28.3906 2.60938 22.625 2.60938 15.5C2.60938 8.375 8.375 2.60938 15.5 2.60938C22.625 2.60938 28.3906 8.375 28.3906 15.5C28.3906 22.625 22.625 28.3906 15.5 28.3906Z" fill="url(#paint1_linear_6_3073)"/>
<path id="Vector_3" opacity="0.4" d="M15.5 30.1719C23.6094 30.1719 30.1719 23.6094 30.1719 15.5C30.1719 7.39063 23.6094 0.828125 15.5 0.828125C7.39063 0.828125 0.828125 7.39063 0.828125 15.5C0.828125 23.6094 7.39063 30.1719 15.5 30.1719ZM15.5 0.5C23.75 0.5 30.5 7.25 30.5 15.5C30.5 23.75 23.75 30.5 15.5 30.5C7.25 30.5 0.5 23.75 0.5 15.5C0.5 7.25 7.25 0.5 15.5 0.5Z" fill="url(#paint2_linear_6_3073)"/>
<path id="Vector_4" d="M1.53125 15.5469C1.53125 7.85937 7.76562 1.53125 15.5 1.53125C23.2344 1.53125 29.4687 7.8125 29.4687 15.5469C29.4687 23.2344 23.2344 29.4687 15.5 29.4687C7.76562 29.4687 1.53125 23.2344 1.53125 15.5469ZM5.89062 5.89062C3.40625 8.375 1.85937 11.7969 1.85937 15.5469C1.85937 19.2969 3.40625 22.7187 5.84375 25.1562C8.32812 27.5937 11.75 29.1406 15.5 29.1406C19.25 29.1406 22.6719 27.6406 25.1094 25.1562C27.5937 22.7187 29.0937 19.2969 29.0937 15.5469C29.0937 11.7969 27.5469 8.375 25.1094 5.89062C22.6719 3.40625 19.25 1.85937 15.5 1.85937C11.75 1.85937 8.32812 3.40625 5.89062 5.89062Z" fill="white"/>
<path id="Vector_5" opacity="0.4" d="M15.5 28.4375C12.0313 28.4375 8.79688 27.0781 6.35938 24.6406C3.92188 22.2031 2.5625 18.9688 2.5625 15.5C2.5625 12.0313 3.92188 8.79688 6.35938 6.35938C8.79688 3.92188 12.0313 2.5625 15.5 2.5625C18.9688 2.5625 22.2031 3.92188 24.6406 6.35938C27.0781 8.79688 28.4375 12.0313 28.4375 15.5C28.4375 18.9688 27.0781 22.2031 24.6406 24.6406C22.2031 27.0781 18.9688 28.4375 15.5 28.4375ZM15.5 28.0625C18.8281 28.0625 22.0156 26.75 24.3594 24.4062C26.75 22.0156 28.0156 18.875 28.0156 15.5469C28.0156 12.2188 26.7031 9.03125 24.3594 6.6875C21.9688 4.29687 18.8281 3.03125 15.5 3.03125C12.1719 3.03125 8.98438 4.34375 6.64063 6.6875C4.25 8.98438 2.9375 12.1719 2.9375 15.5C2.9375 18.8281 4.25 22.0156 6.59375 24.3594C8.98438 26.75 12.1719 28.0625 15.5 28.0625Z" fill="url(#paint3_linear_6_3073)"/>
<path id="Vector_6" d="M26.8908 21.5937C26.6564 21.4062 17.6095 14.2344 17.6095 14.2344L15.5001 2.1875C15.3595 2.23437 15.1719 2.375 15.0782 2.5625L13.5782 14.2812L4.25 21.4531C4.25 21.4531 4.0625 21.6875 3.96875 21.8281C3.92187 21.9219 3.92188 22.0625 3.92188 22.2031L15.4532 17.4687L26.9845 22.2031C27.0783 21.9687 26.9845 21.7344 26.8908 21.5937Z" fill="white"/>
<path id="Vector_7" d="M15.5937 15.875L15.5 18.0312L26.0937 22.2968C26.4687 22.4843 26.7499 22.3906 27.0312 22.2031L15.7344 15.8281C15.6875 15.7813 15.5937 15.8281 15.5937 15.875Z" fill="#565F64"/>
<path id="Vector_8" d="M15.5938 15.875C15.5938 15.875 16.2031 16.9531 16.9062 17.7031C17.8906 18.7812 19.2031 19.5312 19.2031 19.5312L26.0937 22.2968C26.4687 22.4843 26.7499 22.3906 27.0312 22.2031L15.7344 15.8281C15.6875 15.7813 15.5938 15.8281 15.5938 15.875Z" fill="url(#paint4_linear_6_3073)"/>
<path id="Vector_9" d="M26.9843 21.7812C26.9843 21.7343 26.9374 21.6874 26.8905 21.5937L17.2344 14.5156L15.9219 15.3594C15.9219 15.3594 16.0156 15.4062 16.0625 15.3594C16.2031 15.3125 16.4844 15.2656 16.7656 15.3594C17 15.4531 26.9843 21.828 26.9843 21.7812C26.9843 21.828 26.9843 21.828 26.9843 21.7812Z" fill="#A4AAAE" fill-opacity="0.6"/>
<path id="Vector_10" d="M26.6562 21.3594L17.6562 14.2344L17.2344 14.5156L26.8905 21.6406C26.8437 21.5469 26.7499 21.4531 26.6562 21.3594Z" fill="#333E46"/>
<path id="Vector_11" d="M15.7344 15.1719L15.6875 15.2187C15.6875 15.2187 15.6875 15.3125 15.7812 15.2656C15.8281 15.2188 17.1875 14.5156 17.6562 14.2344L16.0156 2.98438C15.9687 2.5625 15.7812 2.375 15.4531 2.23438L15.6406 15.2656L15.7344 15.1719Z" fill="#565F64"/>
<path id="Vector_12" d="M14.9375 2.98438V3.59375L13.9062 13.9531C13.9062 14.0938 13.9531 14.2344 14.0938 14.3281L14.7031 14.7969L15.125 3.35938L15.1719 2.46875C15.0312 2.5625 14.9844 2.75 14.9375 2.98438ZM14.375 14.9844L13.8125 14.5156L4.29688 21.4062C4.29688 21.4062 4.01562 21.5938 3.96875 21.7813L4.29688 21.5938L14.2812 15.3125C14.4688 15.2188 14.5156 15.125 14.375 14.9844Z" fill="#A4AAAE" fill-opacity="0.6"/>
<path id="Vector_13" d="M15.3595 15.875C15.3595 15.8281 15.3126 15.7813 15.2657 15.8281L3.92188 22.25C4.20313 22.4375 4.48438 22.4844 4.85938 22.3438L15.4532 18.0781L15.3595 15.875Z" fill="#565F64"/>
<path id="Vector_14" d="M15.6875 15.2188L15.7344 15.1719L15.6875 15.2188C15.6875 15.2188 15.6875 15.2656 15.7344 15.2656H15.7812C15.8281 15.2188 17.1874 14.5156 17.6561 14.2344L17.4686 12.875L16.0156 2.98438C16.0156 2.79688 15.9687 2.65625 15.875 2.5625C15.875 2.5625 16.5781 12.0313 16.5781 13.0625C16.5781 14.4219 15.6875 15.2188 15.6875 15.2188Z" fill="url(#paint5_linear_6_3073)"/>
<path id="Vector_15" d="M15.3595 15.875C15.3595 15.8281 15.3126 15.7813 15.2657 15.8281L3.92188 22.25C4.20313 22.4375 4.48438 22.4844 4.85938 22.3438L15.4532 18.0781L15.3595 15.875Z" fill="url(#paint6_linear_6_3073)" fill-opacity="0.8"/>
<path id="Vector_16" opacity="0.8" d="M4.85938 22.2969L15.4531 18.0313L15.3594 15.9688C15.1719 16.5313 14.8437 17.1406 13.9531 17.6094C13.2969 17.9844 7.01563 21.0781 4.76563 22.1563C4.625 22.25 4.4375 22.2969 4.34375 22.3437C4.53125 22.4375 4.67188 22.3906 4.85938 22.2969Z" fill="url(#paint7_linear_6_3073)"/>
<path id="Vector_17" d="M15.7344 15.1719L15.6875 15.2187C15.6875 15.2187 15.6875 15.3125 15.7812 15.2656C15.8281 15.2188 17.1875 14.5156 17.6562 14.2344L16.0156 2.98438C15.9687 2.5625 15.7812 2.375 15.4531 2.23438L15.6406 15.2656L15.7344 15.1719Z" fill="url(#paint8_linear_6_3073)"/>
<path id="Vector_18" d="M15.7344 15.1719L15.6875 15.2187C15.6875 15.2187 15.6875 15.3125 15.7812 15.2656C15.8281 15.2188 17.1875 14.5156 17.6562 14.2344L16.0156 2.98438C15.9687 2.5625 15.7812 2.375 15.4531 2.23438L15.6406 15.2656L15.7344 15.1719Z" fill="url(#paint9_linear_6_3073)"/>
<path id="Vector_19" d="M2.89063 21.3125C2.5625 20.5625 0.6875 16.9062 2.75 9.875H1.95312C1.53125 11.2812 1.20313 12.125 1.01563 13.3906C1.01563 13.3906 0.921875 13.8594 0.875 14.375C0.828125 14.8906 0.828125 15.1719 0.828125 15.5C0.828125 18.3125 1.53125 19.9531 1.53125 19.9531C2.28125 22.2969 3.59375 24.4063 5.375 26C6.92188 27.3594 9.3125 28.3906 11.2812 28.7656C10.9531 28.7188 5.32813 26.3281 2.89063 21.3125Z" fill="url(#paint10_linear_6_3073)"/>
<path id="Vector_20" d="M15.6876 15.7813H15.2656C15.3125 15.7813 15.3594 15.7813 15.3594 15.8281L15.4532 17.9844H15.5L15.5938 15.8281C15.5938 15.7813 15.6407 15.7344 15.6876 15.7813Z" fill="url(#paint11_linear_6_3073)"/>
<path id="Vector_21" d="M20.1875 1.57812C25.1094 3.45312 29.75 8.60938 29.75 15.125C29.75 23 23.4688 29.4219 15.5 29.4219V30.1719C23.4688 30.1719 30.1719 23.6094 30.1719 15.5C30.1719 9.03125 26.0469 3.59375 20.1875 1.57812Z" fill="url(#paint12_linear_6_3073)"/>
<path id="Vector_22" d="M28.0625 9.96875C24.7812 2.42187 17.375 2 16.9531 1.95312H16.9062C22.5781 2.98438 26.1875 6.6875 27.4531 10.5781V10.625C28.0156 12.125 28.2969 13.7187 28.3438 15.4531C28.3906 17.0937 28.0156 18.9219 27.3125 20.6094C27.2656 20.8438 27.2188 21.125 27.1719 21.125H27.9219C30.1719 16.9062 29.1875 12.6406 28.0625 9.96875Z" fill="url(#paint13_linear_6_3073)"/>
<path id="Vector_23" d="M1.53125 15.5469C1.53125 7.85937 7.76562 1.53125 15.5 1.53125C23.2344 1.53125 29.4687 7.8125 29.4687 15.5469C29.4687 23.2344 23.2344 29.4687 15.5 29.4687C7.76562 29.4687 1.53125 23.2344 1.53125 15.5469ZM5.89062 5.89062C3.40625 8.375 1.85937 11.7969 1.85937 15.5469C1.85937 19.2969 3.40625 22.7187 5.84375 25.1562C8.32812 27.5937 11.75 29.1406 15.5 29.1406C19.25 29.1406 22.6719 27.6406 25.1094 25.1562C27.5937 22.7187 29.0937 19.2969 29.0937 15.5469C29.0937 11.7969 27.5469 8.375 25.1094 5.89062C22.6719 3.40625 19.25 1.85937 15.5 1.85937C11.75 1.85937 8.32812 3.40625 5.89062 5.89062Z" fill="#FBFBFB"/>
<path id="Vector_24" d="M4.20312 21.5L13.7656 14.6094C14.2813 14.8906 15.125 15.2656 15.2188 15.2656C15.3125 15.3125 15.3125 15.2188 15.3125 15.2188L14.1406 14.2344C14 14.1406 13.9531 14 13.9531 13.8594L15.0781 2.5625C15.0313 2.60938 15.0313 2.70313 14.9844 2.75C14.9375 2.84375 14.9375 2.89063 14.9375 2.98438L13.2969 14.2813L4.29688 21.3594C4.25 21.4062 4.20312 21.4531 4.20312 21.5Z" fill="#333F47"/>
</g>
<defs>
<linearGradient id="paint0_linear_6_3073" x1="4.24906" y1="6.07719" x2="26.7509" y2="24.9228" gradientUnits="userSpaceOnUse">
<stop stop-color="white"/>
<stop offset="0.1" stop-color="#CDD0D0"/>
<stop offset="0.2" stop-color="#A5ACAF"/>
<stop offset="0.3" stop-color="#98A0A4"/>
<stop offset="0.4" stop-color="#828A8F"/>
<stop offset="0.5" stop-color="#667075"/>
<stop offset="0.6" stop-color="#535C63"/>
<stop offset="0.7" stop-color="#475158"/>
<stop offset="0.8" stop-color="#434D54"/>
<stop offset="1" stop-color="#475157"/>
</linearGradient>
<linearGradient id="paint1_linear_6_3073" x1="4.93953" y1="6.62141" x2="26.0333" y2="24.3402" gradientUnits="userSpaceOnUse">
<stop stop-color="#0B1F2A"/>
<stop offset="0.2" stop-color="#333F47"/>
<stop offset="0.5" stop-color="#81898D"/>
<stop offset="0.7" stop-color="#B3B8B8"/>
<stop offset="0.8" stop-color="#DEE0DD"/>
<stop offset="1" stop-color="#FBFBFB"/>
</linearGradient>
<linearGradient id="paint2_linear_6_3073" x1="20.6267" y1="29.592" x2="10.3611" y2="1.37375" gradientUnits="userSpaceOnUse">
<stop stop-color="#E1E3E1"/>
<stop offset="0.1" stop-color="#C1C5C4"/>
<stop offset="0.3" stop-color="#9BA1A2"/>
<stop offset="0.5" stop-color="#7D8487"/>
<stop offset="0.7" stop-color="#687074" stop-opacity="0"/>
<stop offset="0.8" stop-color="#5B6469" stop-opacity="0"/>
<stop offset="1" stop-color="#576065" stop-opacity="0"/>
</linearGradient>
<linearGradient id="paint3_linear_6_3073" x1="9.03172" y1="4.29734" x2="21.9683" y2="26.7027" gradientUnits="userSpaceOnUse">
<stop stop-color="#E1E3E1"/>
<stop offset="0.1" stop-color="#C1C5C4"/>
<stop offset="0.3" stop-color="#9BA1A2"/>
<stop offset="0.5" stop-color="#7D8487"/>
<stop offset="0.7" stop-color="#687074" stop-opacity="0"/>
<stop offset="0.8" stop-color="#5B6469" stop-opacity="0"/>
<stop offset="1" stop-color="#576065" stop-opacity="0"/>
</linearGradient>
<linearGradient id="paint4_linear_6_3073" x1="21.3537" y1="18.9654" x2="20.5568" y2="20.2779" gradientUnits="userSpaceOnUse">
<stop stop-color="#27343C"/>
<stop offset="1" stop-color="#00111E" stop-opacity="0"/>
</linearGradient>
<linearGradient id="paint5_linear_6_3073" x1="19.0529" y1="14.1463" x2="17.7403" y2="12.037" gradientUnits="userSpaceOnUse">
<stop offset="0.1" stop-color="#02131F"/>
<stop offset="0.9" stop-color="#02131F" stop-opacity="0"/>
</linearGradient>
<linearGradient id="paint6_linear_6_3073" x1="15.4916" y1="17.5325" x2="13.5229" y2="18.095" gradientUnits="userSpaceOnUse">
<stop offset="0.2" stop-color="#02131F"/>
<stop offset="0.9" stop-color="#02131F" stop-opacity="0"/>
</linearGradient>
<linearGradient id="paint7_linear_6_3073" x1="10.2458" y1="20.1425" x2="9.96453" y2="19.4394" gradientUnits="userSpaceOnUse">
<stop stop-color="#02131F"/>
<stop offset="0.1" stop-color="#02131F"/>
<stop offset="1" stop-color="#02131F" stop-opacity="0"/>
</linearGradient>
<linearGradient id="paint8_linear_6_3073" x1="17.1884" y1="8.56906" x2="15.5947" y2="8.75655" gradientUnits="userSpaceOnUse">
<stop offset="0.3" stop-color="#02131F"/>
<stop offset="0.8" stop-color="#02131F" stop-opacity="0"/>
</linearGradient>
<linearGradient id="paint9_linear_6_3073" x1="17.2381" y1="8.54234" x2="16.1595" y2="8.68296" gradientUnits="userSpaceOnUse">
<stop offset="0.4" stop-color="#27343C"/>
<stop offset="1" stop-color="#3B474E" stop-opacity="0"/>
</linearGradient>
<linearGradient id="paint10_linear_6_3073" x1="0.33125" y1="15.8895" x2="13.4094" y2="23.4364" gradientUnits="userSpaceOnUse">
<stop stop-color="#25323B" stop-opacity="0"/>
<stop offset="0.1" stop-color="#27343C"/>
</linearGradient>
<linearGradient id="paint11_linear_6_3073" x1="15.4766" y1="18.0313" x2="15.4766" y2="15.7813" gradientUnits="userSpaceOnUse">
<stop offset="0.3" stop-color="#A5ABAF"/>
<stop offset="1" stop-color="#A5ABAF" stop-opacity="0"/>
</linearGradient>
<linearGradient id="paint12_linear_6_3073" x1="22.8359" y1="1.57812" x2="22.8359" y2="30.1719" gradientUnits="userSpaceOnUse">
<stop stop-color="#6B7378"/>
<stop offset="0.2" stop-color="#333F47"/>
<stop offset="0.5" stop-color="#27343C"/>
<stop offset="0.8" stop-color="#333F47"/>
<stop offset="1" stop-color="#434D54"/>
</linearGradient>
<linearGradient id="paint13_linear_6_3073" x1="27.3542" y1="4.29359" x2="21.0261" y2="13.5748" gradientUnits="userSpaceOnUse">
<stop offset="0.7" stop-color="#49545B"/>
<stop offset="0.8" stop-color="white" stop-opacity="0"/>
</linearGradient>
<clipPath id="clip0_6_3073">
<rect width="30" height="30" fill="white" transform="translate(0.5 0.5)"/>
</clipPath>
</defs>
</svg>
