<svg width="31" height="31" viewBox="0 0 31 31" fill="none" xmlns="http://www.w3.org/2000/svg">
<g id="porsche 1">
<path id="Vector" fill-rule="evenodd" clip-rule="evenodd" d="M21.898 25.5745C20.2018 27.12 18.7415 27.9528 15.6655 29.5666C12.8019 28.2644 10.933 26.9807 9.31222 25.7159C7.07245 23.9723 5.46347 21.1407 5.32402 19.4043L4.20654 2.87579C11.7766 0.908073 19.8285 0.952896 26.7935 3.00809L25.6597 19.369C25.5154 20.8505 24.19 23.7316 21.898 25.5745Z" fill="#EDC95E" stroke="#131A34" stroke-width="0.179579" stroke-miterlimit="2.613"/>
<path id="Vector_2" fill-rule="evenodd" clip-rule="evenodd" d="M24.3627 18.8272L25.3858 4.21694C19.3916 2.30789 12.2115 2.27972 5.59595 4.01632L6.64027 18.8177C6.74891 20.3559 7.85704 22.7083 9.98118 24.5109C11.2594 25.5965 13.7638 27.4182 15.6135 28.1164C17.7447 27.0382 19.6824 25.6977 21.218 24.3744C23.1226 22.64 24.2472 20.4832 24.3627 18.8272Z" fill="#EDC95E" stroke="#131A34" stroke-width="0.179579" stroke-miterlimit="2.613"/>
<path id="Vector_3" fill-rule="evenodd" clip-rule="evenodd" d="M20.9724 23.9887C19.5002 25.2581 17.518 26.6808 15.6135 27.5894C13.9125 27.0632 11.3985 25.1235 10.1889 24.0805C8.07908 22.2591 7.22137 20.3526 7.09157 18.55L6.06592 4.42122C12.3649 2.76711 19.2401 2.76711 24.9531 4.58651L23.9396 18.5266C23.7933 20.3807 22.9309 22.153 20.9724 23.9887Z" fill="#EDC95E" stroke="#131A34" stroke-width="0.179579" stroke-miterlimit="2.613"/>
<path id="Vector_4" d="M24.5049 4.88231C19.0873 3.22135 12.5098 3.13155 6.53687 4.69586M6.53687 4.6957L6.73997 7.1308L6.53687 4.6957ZM6.73997 7.1308C12.753 5.62797 19.0518 5.77878 24.2806 7.3599L6.73997 7.1308ZM24.2806 7.3599L24.5049 4.88231L24.2806 7.3599Z" stroke="#131A34" stroke-width="0.179579" stroke-miterlimit="2.613"/>
<path id="Vector_5" fill-rule="evenodd" clip-rule="evenodd" d="M21.4897 5.5995L20.1337 5.37553L20.0814 6.0124L19.6398 5.94657L19.7438 4.25697L20.1951 4.32296L20.1477 4.97197L21.5229 5.19375L21.5675 4.54474L22.0284 4.63221L21.8889 6.32632L21.4402 6.24368L21.4897 5.5995ZM14.9446 5.02644C14.7793 5.02644 14.647 4.98162 14.5595 4.83532C14.484 4.71501 14.484 4.32327 14.5595 4.19347C14.6422 4.0425 14.7909 4.00001 14.9139 4.00001L16.837 4.0025L16.8419 4.41759L15.0227 4.41525C14.9329 4.41525 14.9306 4.61587 15.0297 4.61587H16.4637C16.6315 4.61587 16.7805 4.7175 16.8276 4.84932C16.8796 4.99111 16.8701 5.31203 16.8276 5.44401C16.7875 5.57631 16.6362 5.64914 16.4471 5.64914H14.55L14.5475 5.22457H16.2368C16.2618 5.22259 16.285 5.21129 16.302 5.19291C16.319 5.17454 16.3284 5.15044 16.3284 5.12543C16.3284 5.10041 16.319 5.07631 16.302 5.05794C16.285 5.03956 16.2618 5.02826 16.2368 5.02628H14.9446V5.02644ZM13.8321 5.19515C13.8316 5.17401 13.827 5.15317 13.8184 5.13385C13.8098 5.11452 13.7975 5.0971 13.7821 5.0826C13.7667 5.06809 13.7486 5.0568 13.7288 5.04938C13.709 5.04195 13.6879 5.03855 13.6668 5.03936L12.3909 5.13149L12.4169 5.76369L12.0035 5.80618L11.916 4.13806L13.8157 3.99643C14.0615 3.97776 14.2056 4.16156 14.2173 4.31502C14.2314 4.49665 14.2386 4.73026 14.0968 4.82707C14.2149 4.91438 14.2457 5.04418 14.2481 5.22581L14.2529 5.65272L13.8394 5.66938L13.8321 5.19515Z" fill="#131A34"/>
<path id="Vector_6" fill-rule="evenodd" clip-rule="evenodd" d="M13.5609 4.65362C13.7238 4.64413 13.7097 4.39168 13.5609 4.40585L12.3464 4.49783L12.3606 4.72895L13.5609 4.65362Z" fill="#EDC95E"/>
<path id="Vector_7" fill-rule="evenodd" clip-rule="evenodd" d="M9.58242 4.43209C9.97229 4.34011 10.7709 4.2128 11.1891 4.18198C11.3803 4.16797 11.5293 4.26696 11.5553 4.41575C11.6168 4.75784 11.6546 5.1116 11.6119 5.58614C11.6001 5.72295 11.482 5.83142 11.326 5.86458C10.7897 5.98255 10.1872 6.0462 9.74055 6.08869C9.62709 6.10052 9.44764 6.01087 9.41698 5.86924C9.33901 5.52466 9.31053 5.04328 9.33434 4.71286C9.34383 4.59037 9.45729 4.46057 9.58242 4.43209Z" fill="#131A34"/>
<path id="Vector_8" fill-rule="evenodd" clip-rule="evenodd" d="M11.0999 5.44835C11.1542 5.43636 11.1778 5.37753 11.1827 5.33504C11.2015 5.20524 11.185 4.86533 11.1542 4.75218C11.1448 4.70736 11.107 4.67888 11.022 4.68604C10.7904 4.70035 10.1785 4.78751 9.87608 4.8535C9.79577 4.87249 9.76495 4.91965 9.76028 4.96214C9.74596 5.07295 9.77911 5.37738 9.80744 5.54718C9.8146 5.58749 9.86658 5.61566 9.90658 5.61332C10.3154 5.58048 10.7976 5.51449 11.0999 5.44835Z" fill="#EDC95E"/>
<path id="Vector_9" fill-rule="evenodd" clip-rule="evenodd" d="M17.7996 4.50236C17.7099 4.50003 17.6485 4.55434 17.6414 4.6015C17.6201 4.7408 17.6128 4.91993 17.6128 5.15355C17.6128 5.18421 17.6648 5.26918 17.7098 5.27619C18.1161 5.333 18.9054 5.40381 19.3354 5.43198L19.3093 5.86839C18.7448 5.84255 18.1541 5.75275 17.5422 5.71042C17.3412 5.6961 17.1948 5.58777 17.1875 5.39432C17.1756 5.07573 17.1948 4.59434 17.2516 4.31357C17.2892 4.14144 17.4547 4.05163 17.6413 4.05646C18.2058 4.07778 18.6548 4.12743 19.3944 4.22642L19.3661 4.66064C19.0073 4.62998 18.3267 4.52368 17.7996 4.50236ZM8.55426 4.62905C9.12607 4.49458 9.21338 5.50918 8.73604 5.62715L7.40348 5.9599L7.46729 6.61576L7.04909 6.72657L6.90015 5.0183L8.55426 4.62905Z" fill="#131A34"/>
<path id="Vector_10" fill-rule="evenodd" clip-rule="evenodd" d="M8.5475 5.29362C8.68446 5.2628 8.66562 5.01752 8.51901 5.04818L7.31641 5.33844L7.34473 5.59088L8.5475 5.29362Z" fill="#EDC95E"/>
<path id="Vector_11" fill-rule="evenodd" clip-rule="evenodd" d="M22.6869 5.85268L22.6586 6.12645L23.9793 6.4592L23.9438 6.84129L22.1719 6.42387L22.3253 4.70361L24.1091 5.13535L24.0691 5.53643L22.7412 5.21566L22.715 5.50592L24.0335 5.82685L24.0003 6.1666L22.6869 5.85268Z" fill="#131A34"/>
<path id="Vector_12" d="M6.75171 7.48515L7.38484 16.1987H11.9614V13.3483M11.9615 13.3483V11.9161L11.9631 11.3123L11.9638 11.0197L15.3589 11.0172L15.3567 6.37842L11.9615 13.3483ZM15.3567 6.37842C12.7151 6.37842 9.82103 6.62837 6.75171 7.48515L15.3567 6.37842Z" stroke="#131A34" stroke-width="0.179579" stroke-miterlimit="2.613"/>
<path id="Vector_13" fill-rule="evenodd" clip-rule="evenodd" d="M11.9566 11.7768C11.9566 11.7461 11.5809 11.7176 11.3941 11.7411C10.898 11.8001 9.65753 12.1895 9.13303 12.5506C9.12136 12.5813 9.12354 12.7534 9.08821 12.8337C9.05755 12.9067 8.97957 12.9823 8.90393 13.0153C8.76915 13.0742 8.6132 12.895 8.54472 12.921C8.47375 12.9469 8.32263 13.0083 8.15952 12.8927C8.08637 12.8409 8.04871 12.6946 8.07454 12.5859C8.0982 12.508 8.16435 12.4466 8.21648 12.3971C8.2638 12.35 8.23049 12.1684 8.4006 12.0597C8.51873 11.9844 8.68184 12.0459 8.80713 12.1117C8.83545 12.1022 8.85444 12.0905 8.87561 12.0717C8.89195 12.0219 8.9181 11.8709 8.94175 11.753C8.97024 11.6255 8.97973 11.5429 9.01739 11.425C9.11187 11.1396 9.33863 10.729 9.57504 10.5142C9.76165 10.3491 10.0522 10.217 10.2672 10.2311C10.2458 10.264 9.97892 10.5024 9.90079 10.6087C9.71652 10.8538 9.54656 11.2314 9.46625 11.5523C9.43777 11.6608 9.43777 11.7011 9.45676 11.7718C9.63154 11.6938 9.8583 11.6185 9.99075 11.5758C10.0427 11.4604 10.0711 11.3281 10.116 11.2221C10.1869 11.0568 10.232 10.986 10.305 10.8705C10.5152 10.5449 10.9594 10.224 11.2878 10.2311C11.179 10.3255 10.9523 10.5614 10.8626 10.7029C10.7895 10.8209 10.7208 10.9483 10.6689 11.0805C10.624 11.1984 10.6099 11.2857 10.598 11.3824C10.7682 11.3331 10.9359 11.2976 11.0446 11.2904C11.1179 11.2503 11.1414 11.1724 11.1817 11.0993C11.3068 10.8657 11.5524 10.6037 11.7085 10.5189C11.8336 10.4504 12.0179 10.3843 12.1502 10.4269C12.0084 10.5331 11.8596 10.7027 11.7935 10.8044C11.725 10.9128 11.6139 11.1229 11.6186 11.2221C11.7345 11.2314 11.8853 11.2254 11.9516 11.2089L11.9566 11.7768L11.9582 11.1727L11.9566 11.7768Z" fill="#131A34"/>
<path id="Vector_14" fill-rule="evenodd" clip-rule="evenodd" d="M10.452 7.9552C10.6316 7.70525 11.1039 7.32783 11.468 7.349C11.2695 7.52113 11.0946 7.71225 10.9718 7.91521C10.811 8.17699 10.6811 8.50523 10.6529 8.75751C10.7732 8.71269 11.0568 8.63254 11.2199 8.59705C11.364 8.28329 11.5531 7.93637 11.787 7.74992C11.9546 7.61545 12.1956 7.49981 12.4201 7.5258C12.3682 7.59895 12.283 7.6556 12.2192 7.71474C12.1033 7.81606 12.0231 7.95303 11.9593 8.09216C11.912 8.19597 11.8317 8.50741 11.8293 8.52172C11.9923 8.51939 12.2807 8.53807 12.342 8.55705C12.5334 8.30694 12.9516 7.94369 13.4526 8.02617C13.2352 8.14415 12.8383 8.48857 12.862 8.67736C13.1879 8.88747 13.6746 9.32855 13.6959 9.73663C13.4738 9.50551 13.1076 9.27656 12.9233 9.21291C12.4815 9.05712 11.9546 9.03595 11.5151 9.1161C10.5984 9.28839 9.78801 9.6848 9.01076 10.1497C8.99192 10.2748 8.92329 10.4635 8.86664 10.5271C8.80998 10.5908 8.72485 10.6522 8.63287 10.6666C8.51708 10.6852 8.39895 10.6382 8.29965 10.5863C8.23584 10.5508 8.06806 10.5957 7.96192 10.5388C7.88861 10.5011 7.77515 10.395 7.80597 10.2275C7.83196 10.0789 7.98075 9.98923 8.00192 9.8476C8.03273 9.64013 8.1837 9.55017 8.26183 9.53632C8.34681 9.51967 8.43428 9.54815 8.51225 9.58332C8.54525 9.59982 8.58058 9.6283 8.61155 9.6378C8.64221 9.6283 8.68703 9.59048 8.71318 9.57881C8.72018 9.555 8.79816 9.12342 8.84064 8.93463C8.88313 8.74584 8.95644 8.58522 9.01792 8.40858C9.20219 7.88486 9.77167 7.35616 10.2277 7.38448C10.204 7.41763 10.0574 7.52378 9.85431 7.75957C9.52592 8.1443 9.44312 8.55254 9.32032 9.25322C9.57307 9.13525 9.79283 9.05042 10.0219 8.96762C10.0764 8.75067 10.1496 8.53822 10.2394 8.33294C10.2985 8.2008 10.3693 8.07084 10.452 7.9552Z" fill="#131A34"/>
<path id="Vector_15" fill-rule="evenodd" clip-rule="evenodd" d="M24.2218 8.5354L15.7776 8.54271L15.7846 11.0248L24.0327 11.0201L24.2218 8.5354Z" fill="#CA3132"/>
<path id="Vector_16" fill-rule="evenodd" clip-rule="evenodd" d="M17.7184 19.6386C17.6595 19.8766 17.631 20.2778 17.6358 20.2876C17.7799 20.2283 17.9146 20.1763 18.0328 20.1412C18.042 20.1268 18.2101 19.7613 18.2857 19.6621C18.4627 19.3885 18.7013 19.1547 18.9919 18.9991C19.174 18.907 19.3959 18.8221 19.5922 18.8954C19.3344 19.0179 19.1338 19.2399 19.013 19.3672C18.9021 19.4852 18.772 19.6596 18.713 19.8389C18.7035 19.8696 18.6941 19.9334 18.6941 19.9334C18.8144 19.8957 19.1996 19.8389 19.3604 19.8176C19.3793 19.8151 19.4287 19.7091 19.4666 19.6571C19.514 19.5936 19.5422 19.5535 19.618 19.4687C19.8119 19.2585 20.1402 19.0343 20.4591 19.0838C20.2843 19.1947 20.0927 19.3717 19.9392 19.6501C19.9179 19.6926 19.8897 19.7516 19.9016 19.7774C19.9487 19.7871 20.1828 19.7823 20.3244 19.7991C20.4874 19.6976 20.66 19.6076 20.8466 19.5678C21.0567 19.5203 21.3308 19.5583 21.4397 19.6571C21.3121 19.6501 21.1913 19.6738 21.0759 19.7186C21.0096 19.7448 20.8774 19.8061 20.8275 19.8909C20.9531 19.9262 21.1585 20.0609 21.2883 20.1693C21.3779 20.2447 21.4867 20.3533 21.5552 20.4526C21.7278 20.6861 21.7631 21.1058 21.671 21.2311C21.6452 21.1578 21.6165 21.085 21.5769 21.0162C21.4939 20.8772 21.3638 20.7262 21.2528 20.6434C20.7166 20.2355 19.9439 20.2142 19.3134 20.3413C18.772 20.4526 17.7963 20.6554 17.1585 21.1083C17.1748 21.1889 17.125 21.3229 17.052 21.3752C16.955 21.4457 16.8179 21.3491 16.7471 21.387C16.6505 21.4365 16.5298 21.4056 16.4802 21.3846C16.3951 21.3489 16.3386 21.2618 16.3313 21.1603C16.3243 21.08 16.4021 20.9833 16.4187 20.8962C16.426 20.8605 16.3881 20.6861 16.537 20.5964C16.5653 20.5801 16.6505 20.5492 16.7093 20.5587C16.7683 20.5706 16.8158 20.6082 16.8746 20.6177C16.9548 20.5892 17.0317 20.552 17.1038 20.5068C17.1513 20.325 17.1865 20.1149 17.2103 19.9286L17.7184 19.6386Z" fill="#131A34"/>
<path id="Vector_17" d="M17.7163 19.6332L17.2102 19.9286M17.2102 19.9286C16.787 20.1387 16.2342 20.2803 15.7642 20.2991L17.2102 19.9286ZM15.7642 20.2991L15.7667 27.0873L15.7642 20.2991ZM15.7667 27.0873C17.7395 26.0871 19.9035 24.4497 20.8252 23.5507C22.3159 22.0992 23.3202 20.6293 23.4735 18.5104L15.7667 27.0873ZM23.4733 18.5106L23.6128 16.5807L19.1309 16.5758L23.4733 18.5106ZM19.1311 16.5757C19.1311 17.6706 18.7672 18.8044 17.7163 19.6332L19.1311 16.5757Z" stroke="#131A34" stroke-width="0.179579" stroke-miterlimit="2.613"/>
<path id="Vector_18" fill-rule="evenodd" clip-rule="evenodd" d="M17.7998 22.1499C17.8709 22.0414 17.9561 21.883 17.9983 21.8147C18.1472 21.5764 18.3621 21.3994 18.5089 21.3311C18.7095 21.2345 19.0332 21.1777 19.1774 21.2485C19.0189 21.2865 18.8986 21.3594 18.7873 21.4373C18.6739 21.5151 18.4518 21.7182 18.3951 21.803C18.3316 21.8975 18.2887 21.9823 18.2723 22.027C18.4516 21.9871 18.6669 21.954 18.7778 21.954C18.8585 21.8525 19.0709 21.6096 19.2292 21.4963C19.3568 21.4066 19.6286 21.317 19.7985 21.3901C19.6356 21.4421 19.3475 21.6685 19.241 21.8312C19.2174 21.8692 19.196 21.9093 19.1915 21.9303C19.2788 21.9376 19.4441 21.954 19.5341 21.966C19.5433 21.966 19.7892 21.8148 19.9001 21.7842C20.0446 21.744 20.2807 21.6924 20.4293 21.8505C20.3208 21.8527 20.2189 21.862 20.1387 21.8976C20.0232 21.9496 19.9734 21.9873 19.9215 22.0603C20.1482 22.1806 20.3848 22.3059 20.5242 22.5278C20.5734 22.6056 20.6492 22.7896 20.6066 22.9099C20.5358 22.8203 20.4388 22.7329 20.361 22.688C20.25 22.6242 20.1695 22.563 20.0348 22.511C19.6119 22.3529 19.0589 22.3104 18.6171 22.3694C18.0456 22.4427 17.3436 22.7259 16.9847 22.9712C17.0084 23.0819 16.9541 23.2117 16.8903 23.2423C16.7556 23.3107 16.6258 23.1952 16.602 23.2022C16.5664 23.214 16.4576 23.2517 16.3798 23.2188C16.302 23.1882 16.2525 23.0511 16.2831 22.9638C16.3065 22.8978 16.4011 22.8033 16.4011 22.8033C16.3868 22.6595 16.4814 22.5723 16.6115 22.5555C16.6848 22.5485 16.7368 22.6053 16.7958 22.617C16.8503 22.5912 16.8879 22.5723 16.9164 22.558C16.9496 22.44 16.9991 22.3197 17.0319 22.2206C17.0864 22.0531 17.1668 21.9045 17.2685 21.7488C17.4146 21.5246 17.6748 21.3123 17.9844 21.3075C17.8899 21.3808 17.8355 21.4209 17.7765 21.4941C17.675 21.6214 17.5969 21.737 17.526 21.8737C17.4622 21.994 17.4033 22.1734 17.3934 22.3314C17.5071 22.2774 17.6818 22.1971 17.7998 22.1499ZM17.7542 23.4262C17.8345 23.3933 17.9195 23.3697 18.0046 23.379C17.8062 23.5063 17.6241 23.6928 17.5745 23.9142C17.5699 23.9382 17.5699 23.985 17.5911 23.9994C17.6476 23.985 17.7917 23.9544 17.8297 23.9359C17.8534 23.8864 17.9123 23.8086 17.9525 23.7566C18.0941 23.5678 18.2975 23.379 18.5783 23.4498C18.3943 23.5321 18.288 23.6479 18.2074 23.7942C18.1934 23.8204 18.1838 23.8696 18.2026 23.8696C18.2501 23.8696 18.4297 23.8626 18.4555 23.8626C18.5382 23.7893 18.7792 23.6501 18.9447 23.7021C18.8622 23.741 18.7865 23.7928 18.7204 23.8556C18.7041 23.8744 18.6824 23.898 18.6779 23.9264C18.8244 23.9994 18.9542 24.082 19.075 24.186C19.1388 24.2401 19.2309 24.3416 19.2874 24.5161C19.1458 24.3936 18.6824 24.1741 18.4298 24.1623C18.2645 24.1553 18.059 24.186 17.955 24.2095C17.5556 24.2991 17.1443 24.4786 16.7925 24.6792C16.7947 24.7475 16.783 24.8303 16.7051 24.8938C16.6531 24.9363 16.5398 24.9576 16.4971 24.8963C16.4738 24.8632 16.3199 24.8985 16.2867 24.8561C16.2867 24.8561 16.2466 24.7947 16.2417 24.7215C16.2372 24.6437 16.2892 24.5965 16.3317 24.5564C16.3435 24.5424 16.3412 24.4102 16.4402 24.3651C16.5016 24.3368 16.5633 24.3466 16.6153 24.3794C16.6366 24.3676 16.6529 24.3558 16.6669 24.3466C16.6788 24.1931 16.7074 24.0515 16.7639 23.8982C16.842 23.6809 17.0971 23.4167 17.3169 23.4262C17.1682 23.5866 17.0476 23.8086 17.0075 23.9925C16.9956 24.0515 16.9911 24.167 16.9911 24.2215C17.0437 24.1892 17.0989 24.1616 17.1563 24.1388C17.1799 24.0823 17.2484 23.9407 17.2839 23.8767C17.374 23.7116 17.5746 23.4993 17.7542 23.4262Z" fill="#131A34"/>
<path id="Vector_19" fill-rule="evenodd" clip-rule="evenodd" d="M7.61084 18.7603C7.63917 19.5812 7.97472 20.5723 8.43541 21.259H15.3085L15.2943 20.3009C14.4106 20.3009 13.0616 19.7182 12.5276 18.7652L7.61084 18.7603Z" fill="#CA3132"/>
<path id="Vector_20" d="M18.7291 16.6637L18.7316 11.4114L12.3358 11.4091V16.6185M12.3357 16.6187C12.3357 20.9839 18.7291 20.9839 18.7291 16.6637L12.3357 16.6187Z" stroke="#131A34" stroke-width="0.179579" stroke-miterlimit="2.613"/>
<path id="Vector_21" fill-rule="evenodd" clip-rule="evenodd" d="M14.3952 14.527C14.4708 14.4443 14.5371 14.3357 14.5511 14.2437C14.5628 14.1682 14.3503 14.1731 14.2722 14.2202C14.2297 14.2462 14.1894 14.298 14.1564 14.3453C14.1328 14.3807 14.0478 14.409 14.0053 14.3688C13.9603 14.3264 14.0408 14.2532 14.0384 14.2084C14.0384 14.1331 13.8942 14.2462 13.828 14.2155C13.7832 14.1942 13.7807 14.126 13.8115 14.0859C13.828 14.0644 13.8753 14.0741 13.8967 14.0504C13.918 14.0268 13.918 13.9916 13.9251 13.9608C13.9346 13.9253 13.9723 13.9089 13.996 13.8829C14.0858 13.7956 14.2559 13.647 14.2889 13.6493C14.3667 13.6565 14.4778 13.6965 14.5463 13.661C14.5605 13.6542 14.5864 13.6307 14.5628 13.6163L14.3785 13.496C14.3776 13.477 14.381 13.4581 14.3883 13.4406C14.3956 13.423 14.4067 13.4073 14.4208 13.3946C14.506 13.3191 14.6383 13.3709 14.7494 13.3544C14.8272 13.3426 14.9007 13.3119 14.9572 13.2576C14.9713 13.3142 14.9358 13.3709 14.9358 13.4299C15.0068 13.496 15.0801 13.5525 15.1486 13.6163C15.3517 13.8193 15.4392 14.1141 15.4533 14.3737C15.4652 14.494 15.4652 14.6168 15.4652 14.8174C15.4983 14.7326 15.5195 14.6073 15.5266 14.4988C15.5573 14.1779 15.5077 13.8924 15.3259 13.6493C15.2519 13.5469 15.168 13.4522 15.0753 13.3664C15.0848 13.2721 15.1653 13.1115 15.2407 13.1704C15.2904 13.2083 15.2172 13.2648 15.2692 13.2979C15.326 13.3334 15.4087 13.3286 15.444 13.3214C15.5268 13.3002 15.6071 13.2791 15.6824 13.2721C15.7181 13.2696 15.7769 13.2531 15.7889 13.2886C15.7985 13.3121 15.7726 13.3286 15.7464 13.3381C15.7157 13.3476 15.6686 13.3405 15.6424 13.3665C15.6211 13.3877 15.6 13.4112 15.6071 13.4419C15.6163 13.4774 15.6543 13.4962 15.6919 13.4844C15.8345 13.445 15.9813 13.4228 16.1291 13.4182C16.2072 13.4182 16.1906 13.4749 16.1528 13.4962C16.1269 13.5102 16.0865 13.5222 16.0606 13.5245C15.9212 13.541 15.8172 13.5505 15.8339 13.6308C15.8457 13.685 15.933 13.633 15.9518 13.673C15.9732 13.7155 15.9142 13.7391 15.919 13.7675C15.933 13.857 16.1056 13.8383 16.1859 13.8193C16.2449 13.8051 16.3394 13.758 16.368 13.7958C16.3939 13.8286 16.3725 13.8806 16.3394 13.8901C16.2543 13.9138 16.1078 13.9561 16.0676 14.0034C16.03 14.0482 16.075 14.1402 16.1196 14.1449C16.2211 14.1567 16.3324 14.1567 16.4127 14.1804C16.4434 14.1897 16.4695 14.211 16.4695 14.244C16.4695 14.2795 16.4339 14.2913 16.4057 14.3007C16.3512 14.3172 16.2592 14.3172 16.2093 14.3383C16.1929 14.3455 16.1598 14.3573 16.1646 14.3762C16.1786 14.4116 16.2497 14.4021 16.3087 14.4092C16.3419 14.4116 16.4057 14.4375 16.4057 14.4728C16.4057 14.5106 16.3725 14.5223 16.3132 14.5178C16.2211 14.5106 16.1363 14.5223 16.0961 14.539C16.084 14.5436 16.0135 14.553 16.0155 14.5863C16.0203 14.6261 16.0961 14.6003 16.1146 14.6404C16.1313 14.6781 16.0793 14.6994 16.0748 14.7466C16.0748 14.7656 16.084 14.7749 16.1031 14.7821C16.1646 14.8081 16.2354 14.8056 16.2967 14.7939C16.3606 14.7821 16.3842 14.867 16.3679 14.8765C16.2849 14.9214 16.1006 14.8742 16.0581 14.9C15.9992 14.9379 16.1573 15.0228 16.1526 15.0418C16.1478 15.063 16.129 15.0842 16.1146 15.089C16.0346 15.1196 15.9307 15.0606 15.8715 15.0936C15.822 15.1243 15.8432 15.2021 15.8126 15.2424C15.7746 15.2919 15.6894 15.2708 15.6518 15.2991C15.6023 15.3344 15.5998 15.4192 15.6543 15.4712C15.6968 15.5114 15.7369 15.5395 15.7914 15.5654C16.0373 15.6882 16.2924 15.811 16.531 15.7943C16.6538 15.7873 16.8544 15.7803 16.9657 15.8086C17.1098 15.844 17.2559 15.9548 17.332 16.0019C17.3932 16.0396 17.4925 16.0494 17.5706 16.0211C17.6271 16.0019 17.6648 15.936 17.6533 15.8795C17.6176 15.6907 17.3059 15.6317 17.3009 15.4429C17.2964 15.2259 17.2776 15.108 17.2064 14.9708C17.1806 14.919 17.1758 14.7987 17.2374 14.7822C17.2869 14.7704 17.3034 14.839 17.3436 14.8224C17.5257 14.7514 17.5327 14.4636 17.7218 14.4093C17.8327 14.3786 18.2059 14.3738 18.1753 14.3267C18.0975 14.2159 18.1328 14.0884 18.1753 14.0294C18.2036 13.9917 18.2817 13.9538 18.3124 13.9917C18.3549 14.0411 18.2486 14.1001 18.2559 14.1734C18.2629 14.2417 18.362 14.3738 18.2866 14.4446C18.2416 14.487 17.9035 14.5013 17.8044 14.6523C17.7429 14.7442 17.7361 14.8175 17.8092 14.8104C17.8682 14.8034 17.9177 14.7326 17.9719 14.6924C18.0688 14.6218 18.147 14.5933 18.2014 14.6451C18.2298 14.6711 18.1919 14.7207 18.14 14.7347C18.0975 14.7489 17.9935 14.86 18.0217 14.888C18.0642 14.9329 18.3004 14.7277 18.3597 14.7702C18.3904 14.7937 18.2436 14.9449 18.2698 14.985C18.3004 15.0345 18.3999 14.9567 18.4305 14.9945C18.4752 15.0512 18.3524 15.162 18.2816 15.2115C18.2274 15.2469 18.2484 15.3789 18.1706 15.4191C18.0831 15.4616 18.043 15.5369 18.0523 15.5487C18.0618 15.5676 18.083 15.5816 18.1161 15.5606C18.2128 15.4991 18.3334 15.4261 18.3831 15.4451C18.4114 15.4569 18.3715 15.5912 18.3359 15.6549C18.3003 15.7187 18.48 15.6835 18.4539 15.7375C18.4316 15.7871 18.425 15.8422 18.435 15.8956C18.4494 15.9689 18.2414 15.9853 18.2226 16.0349C18.2013 16.0917 18.2436 16.1058 18.2651 16.1082C18.3904 16.1271 18.3736 16.2426 18.3241 16.2922C18.2581 16.3585 18.1445 16.3843 18.0453 16.3678C17.9602 16.3535 17.7688 16.318 17.6556 16.2332C17.62 16.2074 17.5681 16.2262 17.5608 16.2615C17.5538 16.3017 17.5965 16.375 17.6153 16.4363C17.6414 16.5282 17.6271 16.6439 17.5965 16.7336C17.5305 16.9199 17.3531 17.0755 17.3034 17.2996C17.2916 17.3589 17.3082 17.4319 17.332 17.4887C17.3837 17.6112 17.4594 17.727 17.5445 17.8307C17.5563 17.8638 17.5728 17.9015 17.5588 17.9322C17.54 17.9793 17.3932 18.0808 17.3509 18.1209C17.2162 18.2459 17.1005 18.4089 17.0743 18.5857C17.0648 18.6492 16.9282 18.713 16.8357 18.7391C16.7674 18.7577 16.6964 18.7768 16.6396 18.8215C16.6326 18.8735 16.6633 18.9184 16.6703 18.9701C16.6821 19.0597 16.5688 19.1047 16.4812 19.1331C16.4397 19.149 16.3958 19.1578 16.3514 19.1589C16.335 19.1589 16.33 19.1306 16.3325 19.1167C16.3584 18.9939 16.382 18.8948 16.4292 18.7936C16.4483 18.7556 16.479 18.725 16.5098 18.6991L16.8475 18.4159L17.1123 18.036C17.1356 18.0006 17.1451 17.97 17.1451 17.9441C17.1451 17.8708 17.1145 17.8025 17.0625 17.7554C16.9965 17.6964 16.8995 17.687 16.8262 17.6489C16.7317 17.602 16.5946 17.4696 16.5758 17.4601C16.5238 17.4343 16.4932 17.5284 16.4862 17.5829C16.4743 17.6656 16.5002 17.7434 16.498 17.8259C16.498 17.8638 16.4932 17.8852 16.4743 17.9085C16.2524 18.0358 15.9758 18.083 15.8129 18.2861C15.7842 18.3214 15.7587 18.3594 15.7207 18.3852C15.6283 18.449 15.475 18.3757 15.4063 18.4749C15.3757 18.5198 15.4112 18.5788 15.3993 18.6283C15.3922 18.6566 15.3379 18.6943 15.2955 18.7156C15.2388 18.741 15.178 18.7561 15.1159 18.7603C15.0474 18.7275 15.0899 18.6308 15.1134 18.5622C15.1371 18.4914 15.1702 18.4209 15.2246 18.3734C15.305 18.3029 15.4063 18.2132 15.4705 18.1821C15.5246 18.1563 15.6074 18.1563 15.6734 18.1304C15.7432 18.1091 15.8093 18.0772 15.8695 18.036C15.9665 17.9748 16.0561 17.8992 16.1106 17.7952C16.1721 17.6775 16.1651 17.5196 16.0869 17.4179C16.0161 17.3258 15.9335 17.2361 15.8863 17.1322C15.8602 17.0757 15.879 16.9979 15.9195 16.9459C15.917 16.9437 15.8888 16.9246 15.872 16.9295C15.5343 16.9439 15.1917 16.9062 14.8775 16.7809C14.7947 16.7478 14.7097 16.6416 14.6506 16.6348C14.5962 16.6274 14.5631 16.6959 14.5088 16.7101C14.4213 16.7337 14.3079 16.7196 14.2064 16.7101C14.0882 16.6983 13.8425 16.6463 13.6652 16.5898C13.6369 16.5946 13.6062 16.5993 13.5802 16.6159C13.5424 16.6418 13.5354 16.6983 13.5329 16.7457C13.5283 16.8092 13.5471 16.8682 13.5399 16.9342C13.5378 16.9674 13.5189 17.0028 13.5283 17.0337C13.5378 17.0713 13.5754 17.0878 13.6014 17.1115C13.6439 17.1516 13.6511 17.234 13.6511 17.3C13.6511 17.3733 13.6251 17.4699 13.6865 17.5197C13.7244 17.5504 13.7764 17.5101 13.8237 17.5197C13.8756 17.5289 13.892 17.5927 13.8945 17.6422C13.897 17.6987 13.8497 17.8192 13.8188 17.8498C13.7975 17.8711 13.762 17.8546 13.7362 17.8428C13.6679 17.8122 13.6039 17.7625 13.5662 17.6967C13.5497 17.668 13.5497 17.6329 13.5331 17.6025C13.5071 17.5505 13.4598 17.5199 13.4126 17.4842C13.356 17.4417 13.3441 17.3642 13.3347 17.2954C13.3277 17.2319 13.3395 17.1702 13.3441 17.1067C13.3563 16.9803 13.3483 16.8529 13.3205 16.7291C13.2992 16.6349 13.2473 16.5403 13.2708 16.4461C13.2827 16.4012 13.3133 16.3588 13.356 16.34C13.5851 16.3282 13.812 16.2902 14.0293 16.2217L13.8876 16.0824C13.852 16.0824 13.8238 16.118 13.7883 16.118C13.7505 16.118 13.6985 16.0639 13.6845 16.0447C13.6112 15.9363 13.5641 15.8113 13.5309 15.684C13.5001 15.6345 13.4624 15.5845 13.4056 15.5612C13.3662 15.5439 13.3235 15.5359 13.2805 15.5375C13.1622 15.5895 13.0536 15.691 13.0441 15.8208C13.0417 15.8539 13.0606 15.8823 13.0559 15.9149C13.0489 15.9718 13.0063 16.0094 12.9661 16.0496C12.926 16.0897 12.8881 16.1299 12.8716 16.1864C12.8575 16.2335 12.8741 16.283 12.8951 16.328C12.9095 16.3587 12.926 16.3892 12.9141 16.4222C12.8856 16.5 12.6992 16.5803 12.6449 16.5803C12.626 16.5803 12.6094 16.5545 12.6024 16.5331C12.5811 16.4623 12.5859 16.387 12.6 16.3159C12.6497 16.2617 12.6875 16.1982 12.7087 16.1274C12.737 16.0332 12.7228 15.9316 12.7678 15.8441C12.8858 15.6438 13.1882 15.2427 13.2475 15.1836C13.2735 15.1576 13.3371 15.1434 13.3633 15.1599C13.4909 15.2426 13.5666 15.3441 13.6892 15.4077C13.7555 15.4407 13.8381 15.4904 13.8973 15.4431C13.9563 15.3959 13.9658 15.0798 14.0036 14.9995C14.0716 14.8597 14.263 14.6756 14.3952 14.527ZM16.747 12.5616L16.695 12.7597H16.5059L16.7518 11.8299H16.9668L17.2029 12.7527H17.0141L16.9668 12.5616H16.747ZM16.2505 12.0972C16.253 12.0358 16.2342 11.9557 16.1845 11.9367C16.1322 11.9179 16.0781 11.9342 16.0547 11.9697C16.0143 12.0358 16.0143 12.1255 16.0167 12.2621C16.0167 12.3448 16.0192 12.4606 16.0356 12.5147C16.0757 12.6399 16.182 12.647 16.234 12.5691C16.2602 12.5314 16.2602 12.4582 16.2577 12.3923H16.1489V12.2553H16.4301V12.7555H16.2955V12.687C16.293 12.6919 16.234 12.7365 16.2055 12.7508C16.1584 12.772 16.0687 12.772 15.9954 12.7412C15.9339 12.7154 15.8751 12.6329 15.849 12.5267C15.8231 12.4156 15.8347 12.2716 15.8347 12.149C15.8371 12.0193 15.9055 11.8752 15.9999 11.8211C16.0662 11.7832 16.189 11.7832 16.2672 11.8116C16.3616 11.8447 16.4346 11.9815 16.4206 12.097H16.2505V12.0972ZM13.0855 11.8441C13.1611 11.8913 13.2013 11.9786 13.1873 12.0802H13.0382C13.0382 11.9859 12.998 11.9407 12.9179 11.9386C12.8682 11.9361 12.8067 11.9929 12.8067 12.0354C12.8042 12.1602 12.9155 12.1863 12.991 12.2098C13.0477 12.2265 13.1161 12.2618 13.1493 12.3113C13.2108 12.4008 13.2178 12.4954 13.1683 12.6181C13.1448 12.6769 13.0548 12.7477 12.9793 12.7642C12.8942 12.7832 12.7902 12.7737 12.7053 12.7099C12.6368 12.6579 12.606 12.5564 12.6201 12.4645H12.7879C12.7879 12.5094 12.7949 12.5423 12.8139 12.5708C12.8281 12.5898 12.854 12.6203 12.899 12.6227C12.9168 12.6241 12.9347 12.6215 12.9514 12.6151C12.9681 12.6088 12.9831 12.5988 12.9955 12.586C13.0079 12.5732 13.0173 12.5578 13.0231 12.5409C13.0288 12.524 13.0308 12.506 13.0288 12.4883C13.0193 12.3443 12.7784 12.3348 12.6956 12.2427C12.5963 12.1295 12.6273 11.9478 12.7076 11.8746C12.8186 11.7711 12.9698 11.7711 13.0855 11.8441ZM17.8562 12.4593C17.8584 12.4948 17.8611 12.6198 17.8657 12.7001C17.8682 12.7236 17.8916 12.7543 17.8916 12.7566H17.7143C17.6909 12.7566 17.6884 12.7141 17.686 12.6788C17.6814 12.5845 17.6908 12.3602 17.5986 12.3602H17.485V12.7543H17.3078V11.834H17.627C17.7874 11.834 17.8681 11.9261 17.8681 12.0511C17.8681 12.1337 17.8656 12.2304 17.7711 12.2705C17.8206 12.3179 17.8489 12.3887 17.8562 12.4593Z" fill="#131A34"/>
<path id="Vector_22" fill-rule="evenodd" clip-rule="evenodd" d="M17.6133 11.967H17.4807V12.215H17.5777C17.7386 12.215 17.7361 11.967 17.6133 11.967Z" fill="#EDC95E"/>
<path id="Vector_23" fill-rule="evenodd" clip-rule="evenodd" d="M13.6244 12.7582H13.4472V11.9819H13.2439V11.8263H13.8299V11.9819H13.6244V12.7582ZM14.7651 12.7582V11.9819H14.5618V11.8263H15.1501V11.9819H14.9424V12.7582H14.7651ZM15.2298 11.8264H15.8181V11.9847H15.6102V12.7586H15.4329V11.9847H15.2298V11.8264ZM18.3035 11.9847V12.7611H18.1262V11.9847H17.9228V11.8268H18.5089V11.9847H18.3035ZM14.2934 12.491V11.828H14.4656V12.4745C14.4656 12.8614 13.9033 12.8614 13.9033 12.4864V11.828H14.0756V12.4934C14.0758 12.6375 14.2934 12.6375 14.2934 12.491Z" fill="#131A34"/>
<path id="Vector_24" d="M14.6912 13.1873C14.7432 13.1426 14.8164 13.081 14.9015 13.027C14.9771 12.9773 14.892 13.0906 14.8873 13.1378C14.873 13.2651 14.7762 13.2793 14.6699 13.2558C14.6511 13.2511 14.6582 13.2156 14.6912 13.1873Z" stroke="#131A34" stroke-width="0.179579" stroke-miterlimit="2.613"/>
<path id="Vector_25" fill-rule="evenodd" clip-rule="evenodd" d="M19.1343 16.1619L23.6471 16.1594L23.8477 13.668L19.1343 13.6703V16.1619ZM15.3283 23.9218L10.6738 23.9123C11.633 24.7735 13.854 26.3852 15.3142 27.0388L15.3283 23.9218Z" fill="#CA3132"/>
<path id="Vector_26" fill-rule="evenodd" clip-rule="evenodd" d="M11.9615 14.0961V14.495C11.7772 14.3582 10.9218 14.2591 10.395 14.4644C10.2675 14.5137 9.85165 14.6931 9.66255 14.8418L9.13105 15.2618C9.07891 15.304 9.0744 15.3963 9.0744 15.4671C9.0744 15.6228 8.89246 15.7407 8.79083 15.7076C8.70819 15.6793 8.59473 15.6629 8.49076 15.6863C8.37964 15.7099 8.2805 15.5708 8.271 15.4905C8.25684 15.3915 8.33497 15.2618 8.33948 15.2192C8.34415 15.179 8.31816 15.0211 8.46461 14.9243C8.53076 14.8818 8.62305 14.8841 8.68904 14.9196C8.70828 14.9309 8.73118 14.9343 8.75285 14.9289C8.77651 14.9196 8.84032 14.8629 8.85682 14.8488C8.86398 14.7546 8.84982 14.6058 8.85931 14.5233C8.88048 14.3627 8.88997 14.2709 8.93962 14.115C8.98211 13.9805 9.0744 13.7847 9.14272 13.6739C9.26568 13.4733 9.5091 13.2798 9.69088 13.2963C9.61991 13.3906 9.59641 13.4403 9.54442 13.5371C9.44762 13.714 9.35782 14.0066 9.31533 14.2046C9.28685 14.3321 9.27268 14.4312 9.27969 14.5657C9.41914 14.4619 9.56559 14.377 9.6624 14.3226C9.70916 14.0885 9.7887 13.8621 9.89866 13.6502C10.0168 13.4261 10.3357 13.183 10.5436 13.2018C10.3475 13.4143 10.2082 13.7092 10.1562 13.898C10.1349 13.9733 10.1089 14.0606 10.1207 14.1079C10.1986 14.0656 10.3595 14.0231 10.4373 14.016C10.4893 13.8862 10.5601 13.7304 10.6193 13.6385C10.8035 13.3553 11.0941 13.183 11.2597 13.1902C11.1297 13.3646 11.0185 13.5229 10.9383 13.7564C10.9145 13.8247 10.9028 13.898 10.9028 13.9333C11.0043 13.9167 11.1626 13.9167 11.2266 13.9167C11.3987 13.7621 11.3817 13.7198 11.5716 13.5747C11.6897 13.4826 11.9093 13.3575 11.9613 13.348V13.6269C11.8714 13.7073 11.6896 13.8801 11.6539 13.9699C11.7322 13.9985 11.8882 14.0466 11.9615 14.0961Z" fill="#131A34"/>
<path id="Vector_27" fill-rule="evenodd" clip-rule="evenodd" d="M16.9408 12.3926L16.8559 12.0197L16.7756 12.3926H16.9408Z" fill="#EDC95E"/>
<path id="Vector_28" fill-rule="evenodd" clip-rule="evenodd" d="M24.0078 11.2674L19.1512 11.2694V13.4197L23.8589 13.4255L24.0021 11.3524L24.0078 11.2674ZM24.2313 8.29849L24.2745 7.5975C21.2268 6.65698 18.4088 6.37512 15.7676 6.37512L15.7664 8.28681L24.2313 8.29849ZM12.4112 18.508C12.0811 17.8985 11.9508 17.2291 11.9508 16.5737L7.46875 16.5785L7.6082 18.5084L12.4112 18.508ZM15.3115 23.5965L15.3122 21.5851L8.6049 21.5778C9.04037 22.2727 9.59958 22.9109 10.2519 23.5459C10.2698 23.5635 10.2883 23.5816 10.3073 23.5998L15.3115 23.5965Z" fill="#131A34"/>
</g>
</svg>
